<svg id="Layer_1" data-name="Layer 1" xmlns="http://www.w3.org/2000/svg" viewBox="0 0 576 384"><defs><style>.cls-1,.cls-15,.cls-5,.cls-7,.cls-8{fill:none;}.cls-2,.cls-3{fill:#d0dbf4;}.cls-2{fill-rule:evenodd;}.cls-10,.cls-4{fill:#fcbf12;}.cls-10,.cls-11,.cls-12,.cls-13,.cls-14,.cls-15,.cls-16,.cls-17,.cls-5,.cls-6,.cls-7,.cls-8,.cls-9{stroke:#586ab1;stroke-linecap:round;stroke-linejoin:round;}.cls-16,.cls-5{stroke-width:2.5px;}.cls-11,.cls-13,.cls-16,.cls-6{fill:#d1d1d1;}.cls-10,.cls-6,.cls-7,.cls-9{stroke-width:1.75px;}.cls-13,.cls-8{stroke-width:1.5px;}.cls-9{fill:#bcbcbc;}.cls-11,.cls-12,.cls-14,.cls-15,.cls-17{stroke-width:2px;}.cls-12{fill:#fff;}.cls-14{fill:#5dc5cd;}.cls-17{fill:#5cc5cd;}.cls-18{fill:#586ab1;}.cls-19{fill:#47afb2;}</style></defs><title>general-empty-state-spot-hero</title><rect class="cls-1" x="0.17" y="-0.13" width="576" height="384"/><path class="cls-2" d="M284.35,360.1a152,152,0,1,0-152-152A152,152,0,0,0,284.35,360.1Z"/><path class="cls-3" d="M474,194.13h0l-.19,0a1.53,1.53,0,0,0-.36-.07c-3.07-.66-4.4-3.61-4.84-4.88a2.25,2.25,0,0,0-4.4-.35l0-.2s-1,4.46-4.81,5.42a2.4,2.4,0,0,0-.48.09l-.28.05.05,0a2.29,2.29,0,0,0-1.39,2.09,2.26,2.26,0,0,0,1.55,2.14l-.08,0c3.5.41,5,3.71,5.4,5a2.26,2.26,0,0,0,4.48-.17c.43-1.23,1.67-4,4.46-4.76h.13a2.27,2.27,0,0,0,.76-4.4Z"/><path class="cls-4" d="M469.76,148.42l0,0-.24,0a3.58,3.58,0,0,0-.45-.09c-3.91-.84-5.6-4.59-6.16-6.2a2.86,2.86,0,0,0-5.59-.45l0-.26s-1.33,5.68-6.11,6.9a3.24,3.24,0,0,0-.62.12c-.12,0-.23.05-.35.06l.07,0a2.87,2.87,0,0,0,.2,5.38l-.11,0c4.45.52,6.31,4.71,6.87,6.39a2.87,2.87,0,0,0,5.7-.21c.54-1.56,2.12-5,5.66-6.06h.17a2.87,2.87,0,0,0,1-5.58Z"/><path class="cls-3" d="M385.43,53.61h0l-.19,0a2.08,2.08,0,0,0-.36-.06c-3.07-.67-4.4-3.62-4.84-4.88a2.25,2.25,0,0,0-4.4-.36l0-.2s-1,4.47-4.8,5.43a1.93,1.93,0,0,0-.49.09l-.28.05.05,0a2.26,2.26,0,0,0,.16,4.23l-.08,0c3.5.4,5,3.7,5.4,5a2.26,2.26,0,0,0,4.48-.16c.43-1.23,1.67-4,4.46-4.76h.13a2.26,2.26,0,0,0,.76-4.4Z"/><line class="cls-5" x1="41.26" y1="327.24" x2="516.13" y2="327.24"/><path class="cls-4" d="M181,53.12h0l.24,0a2.32,2.32,0,0,1,.46-.07c3.91-.79,5.66-4.52,6.23-6.12a2.87,2.87,0,0,1,5.61-.38l0-.25s1.24,5.69,6,7a2.53,2.53,0,0,1,.62.13l.35.07-.07,0a2.87,2.87,0,0,1-.28,5.37l.11,0c-4.46.45-6.37,4.62-7,6.29a2.86,2.86,0,0,1-5.68-.28c-.53-1.57-2.06-5.07-5.59-6.14h-.16a2.88,2.88,0,0,1-.89-5.6Z"/><path class="cls-3" d="M135.54,94.63h0a1.38,1.38,0,0,1,.2,0,1.36,1.36,0,0,1,.35-.07c3.07-.66,4.41-3.61,4.84-4.88a2.25,2.25,0,0,1,4.4-.36l0-.2s1.05,4.47,4.81,5.43a2,2,0,0,1,.49.09l.27.05,0,0a2.26,2.26,0,0,1-.16,4.23l.09,0c-3.51.41-5,3.71-5.41,5a2.26,2.26,0,0,1-4.48-.16c-.42-1.23-1.67-4-4.46-4.76h-.12a2.26,2.26,0,0,1-.76-4.4Z"/><path class="cls-3" d="M218.42,38.54h0l.19,0a2.08,2.08,0,0,1,.36-.06c3.07-.67,4.4-3.62,4.84-4.88a2.25,2.25,0,0,1,4.4-.36l0-.2s1,4.47,4.8,5.43a1.93,1.93,0,0,1,.49.09l.28.05-.05,0a2.26,2.26,0,0,1-.16,4.23l.08,0c-3.5.4-5,3.7-5.4,5a2.26,2.26,0,0,1-4.48-.16c-.43-1.23-1.67-4-4.46-4.76h-.13a2.26,2.26,0,0,1-.76-4.4Z"/><path class="cls-4" d="M333.35,38.19l-.05,0,.24-.05A3.4,3.4,0,0,1,334,38c3.9-.84,5.6-4.59,6.15-6.2a2.87,2.87,0,0,1,5.6-.45l0-.26s1.33,5.68,6.11,6.9a3,3,0,0,1,.62.11c.12,0,.23.06.35.07l-.06,0a2.88,2.88,0,0,1-.21,5.38l.11,0c-4.45.51-6.3,4.71-6.87,6.38a2.87,2.87,0,0,1-5.69-.2c-.54-1.56-2.12-5-5.67-6.06h-.16a2.87,2.87,0,0,1-1-5.58Z"/><path class="cls-4" d="M68.37,326.83s-.15-4.84,0-4.69a22.33,22.33,0,0,0,3.17,0V301.87a3.73,3.73,0,0,1,3.63-3.78V288H70.33v-4.39a1.92,1.92,0,0,1-2.26,1.67c-2.12-.15-2.27-2.88-2.27-2.88V276.3s.9-2.27,2.72-2a2.67,2.67,0,0,1,2.12,2.11v-4.68h4.08v-3.94H72.6s-1.36-.75-1.06-3.63l-.9-.91a3.66,3.66,0,0,1-2-2c-.45-1.36,1.82-2.42,1.82-2.42S72,243.33,84.55,240.76c0,0-.6-3,3-3s2.72,2.87,2.72,2.87,11.19-1,15,17.7c0,0,2.87,1.21,2.57,3.18s-2.72,2.27-2.72,2.27.45,3.33-1.52,3.78a14.38,14.38,0,0,1-2.72.45v3.63H105v4.54s1.06-2.12,2.88-1.36,2,3.93,2,3.93v4.69s.16,1.67-2,1.52-2.12-.76-2.12-.76v3.63h-4.84v9.38a4.72,4.72,0,0,1,3.48,4.54c.15,3.78,0,20.27,0,20.27h4.54v5.14Z"/><rect class="cls-6" x="68.22" y="322.59" width="40.54" height="4.84"/><path class="cls-7" d="M72,322.29v-20.9a3.16,3.16,0,0,1,3.15-3.16h26a3.17,3.17,0,0,1,3.16,3.16v20.9"/><line class="cls-7" x1="75.17" y1="268.22" x2="75.17" y2="297.86"/><line class="cls-7" x1="100.89" y1="268.15" x2="100.89" y2="297.96"/><path class="cls-7" d="M104.82,264.44v2.24a1.15,1.15,0,0,1-1.15,1.15h-31a1.16,1.16,0,0,1-1.15-1.15v-2.24"/><path class="cls-7" d="M76.75,263.45H69.82a1.16,1.16,0,0,1-1.15-1.15v-1.94a1.16,1.16,0,0,1,1.15-1.15h36.73a1.16,1.16,0,0,1,1.15,1.15v1.94a1.16,1.16,0,0,1-1.15,1.15h-7.9"/><path class="cls-7" d="M71.24,258.61c2.12-20.43,17.09-17.85,17.09-17.85s15.28-1.52,16.8,18.3"/><path class="cls-8" d="M86.53,240.73c-1.81,1-7.13,5-7.12,18.19"/><path class="cls-8" d="M89.8,240.79c1.91,1.08,7,5.16,7,18"/><circle class="cls-9" cx="88.12" cy="281.69" r="9.62"/><circle class="cls-10" cx="88.26" cy="281.82" r="3.19"/><line class="cls-8" x1="78.2" y1="302.93" x2="78.2" y2="322.29"/><line class="cls-8" x1="84.86" y1="302.93" x2="84.86" y2="322.29"/><line class="cls-8" x1="91.66" y1="302.93" x2="91.66" y2="322.29"/><line class="cls-8" x1="98.02" y1="302.93" x2="98.02" y2="322.29"/><rect class="cls-7" x="70.64" y="271.88" width="4.39" height="16.19"/><rect class="cls-6" x="65.95" y="274.83" width="4.69" height="10.29" rx="1.37"/><rect class="cls-7" x="100.89" y="271.88" width="4.39" height="16.19" transform="translate(206.17 559.94) rotate(-180)"/><rect class="cls-6" x="105.28" y="274.83" width="4.69" height="10.29" rx="1.37" transform="translate(215.24 559.94) rotate(-180)"/><path class="cls-6" d="M84.72,239.82V239a1.18,1.18,0,0,1,1.18-1.18h3.24A1.19,1.19,0,0,1,90.32,239v.87"/><rect class="cls-11" x="419.21" y="112.3" width="7.89" height="196.65"/><rect class="cls-11" x="413.46" y="260.21" width="19.38" height="51.01"/><line class="cls-8" x1="418.66" y1="305.02" x2="418.66" y2="310.91"/><line class="cls-8" x1="418.66" y1="260.84" x2="418.66" y2="301.81"/><line class="cls-8" x1="427.22" y1="288.34" x2="427.22" y2="310.91"/><line class="cls-8" x1="427.22" y1="279.99" x2="427.22" y2="283.2"/><line class="cls-8" x1="427.22" y1="260.84" x2="427.22" y2="273.79"/><rect class="cls-11" x="409.96" y="252.82" width="26.39" height="7.06" rx="3.07"/><rect class="cls-11" x="411.37" y="245.6" width="23.57" height="7.06" rx="3.07"/><rect class="cls-11" x="409.3" y="310.59" width="27.71" height="8.34" rx="2"/><rect class="cls-11" x="405.97" y="317.97" width="34.37" height="8.34" rx="2"/><line class="cls-8" x1="414.76" y1="318.29" x2="414.76" y2="325.35"/><line class="cls-8" x1="431.8" y1="318.29" x2="431.8" y2="325.35"/><rect class="cls-11" x="414.53" y="113.7" width="17.24" height="7.06" rx="3.07"/><rect class="cls-11" x="416.91" y="120.84" width="12.47" height="7.06" rx="3.07"/><path class="cls-11" d="M416.75,45.83a5.83,5.83,0,0,1,5.91-5.71h0a5.83,5.83,0,0,1,5.91,5.71"/><path class="cls-12" d="M440.54,60.88,433.8,102c-.55,2.78-1.92,4.78-4.25,4.78H415.9c-2.34,0-3.71-2-4.25-4.78l-6.88-41.91Z"/><path class="cls-11" d="M433,46.26H412.1c-2.34,0-3.49,2-4.77,4.89l-4.25,9c0,2.69,1.91,4.89,4.25,4.89H438c2.34,0,4.25-2.2,4.25-4.89l-4.25-9C436.68,48.19,435.35,46.26,433,46.26Z"/><polygon class="cls-11" points="428.96 114.52 416.36 114.52 414.06 104.78 431.26 104.78 428.96 114.52"/><circle class="cls-11" cx="422.58" cy="37.72" r="2.49"/><rect class="cls-11" x="401.16" y="60.9" width="43.99" height="3.85" rx="1.67"/><line class="cls-13" x1="413.08" y1="57.01" x2="412.07" y2="59.94"/><line class="cls-13" x1="416.72" y1="46.46" x2="414.19" y2="53.8"/><line class="cls-13" x1="413.56" y1="65.82" x2="419.13" y2="103.27"/><line class="cls-13" x1="432.26" y1="65.82" x2="426.7" y2="103.27"/><line class="cls-13" x1="429.11" y1="46.46" x2="433.25" y2="59.94"/><path class="cls-14" d="M194.89,155.14s-2,7.65,5.29,9.74S212.87,168.63,214,173s2-14.1-3.13-19.35S196.27,150.14,194.89,155.14Z"/><path class="cls-15" d="M190.27,156.19s10.87-2.94,18.15,4.43"/><path class="cls-8" d="M178.06,158.89a8.37,8.37,0,0,0,2.42-.83"/><path class="cls-8" d="M166.05,154.68a24.76,24.76,0,0,0,7.38,3.88"/><path class="cls-8" d="M124.64,125.53a26.17,26.17,0,0,1,5.45.76c14.77,3.53,13.16,26.64,4.82,29.85s-12.36-5.52-10-11.56c3.21-8,18.61-10.59,27.92-1.6,3,2.86,6,5.85,9.09,8.47"/><path class="cls-8" d="M114.37,129.18a9,9,0,0,1,3.91-2.67"/><path class="cls-14" d="M507,268s-8.29-2.34-6.16-10.36,3.55-13.94.08-17.45,14.28,6,16.34,13.69S512.44,269.49,507,268Z"/><path class="cls-15" d="M503.45,271.72s8.79-8.52,5.95-19.42"/><path class="cls-8" d="M465.35,306.71S494,321,506.19,280.53"/><path class="cls-8" d="M499.56,281.92s-3.69,18.6-24.16,16.37"/><rect class="cls-11" x="165.07" y="195.23" width="11.21" height="127.72" rx="1"/><path class="cls-16" d="M183.93,283.2h0a5.37,5.37,0,0,1-5.35,5.35H162a5.36,5.36,0,0,1-5.35-5.35h0"/><rect class="cls-11" x="362.25" y="195.23" width="11.21" height="127.72" rx="1"/><path class="cls-16" d="M381.73,283.2h0a5.37,5.37,0,0,1-5.35,5.35H359.77a5.37,5.37,0,0,1-5.35-5.35h0"/><rect class="cls-17" x="142.59" y="231.33" width="252.06" height="20.44" rx="2"/><rect class="cls-17" x="138.62" y="272.88" width="258.91" height="10.91" rx="1"/><path class="cls-17" d="M338.88,205.12H392a2.65,2.65,0,0,1,2.65,2.65v15.14a2.65,2.65,0,0,1-2.65,2.65H145.24a2.65,2.65,0,0,1-2.65-2.65V207.77a2.65,2.65,0,0,1,2.65-2.65H327.49s3,4.39,6.08,4.39S338.88,205.12,338.88,205.12Z"/><circle class="cls-11" cx="170.45" cy="215.34" r="3.38"/><circle class="cls-11" cx="368.26" cy="215.34" r="3.38"/><circle class="cls-11" cx="170.45" cy="242.2" r="3.38"/><circle class="cls-11" cx="368.26" cy="242.2" r="3.38"/><path class="cls-11" d="M161.78,325.71V322.2a1.16,1.16,0,0,1,1.15-1.15h15.79a1.16,1.16,0,0,1,1.15,1.15v3.51"/><path class="cls-11" d="M358.85,325.91V322.2a1.16,1.16,0,0,1,1.15-1.15h15.78a1.15,1.15,0,0,1,1.15,1.15v3.71"/><rect class="cls-18" x="165.04" y="252.11" width="11.32" height="5.41"/><rect class="cls-18" x="361.86" y="252.11" width="11.32" height="5.41"/><rect class="cls-19" x="139.79" y="274.11" width="256.5" height="3.21"/><line class="cls-8" x1="161.75" y1="241.91" x2="166.69" y2="241.91"/><line class="cls-8" x1="174.16" y1="241.91" x2="179.1" y2="241.91"/><line class="cls-8" x1="359.01" y1="241.91" x2="363.96" y2="241.91"/><line class="cls-8" x1="371.42" y1="241.91" x2="376.37" y2="241.91"/><line class="cls-8" x1="161.75" y1="214.95" x2="166.69" y2="214.95"/><line class="cls-8" x1="174.16" y1="214.95" x2="179.1" y2="214.95"/><line class="cls-8" x1="359.01" y1="214.95" x2="363.96" y2="214.95"/><line class="cls-8" x1="371.42" y1="214.95" x2="376.37" y2="214.95"/><rect class="cls-18" x="165.04" y="289.14" width="11.32" height="4.31"/><rect class="cls-18" x="361.86" y="289.14" width="11.32" height="4.31"/><path class="cls-8" d="M161.66,159.77s9,11.56,27.38,3"/><path class="cls-8" d="M339.77,154.69c9.74-.22,18.8-2.12,23.91-7.1,11.26-11,6.88-28.19-2.6-32.37-8.07-3.56-24.56,1.86-22.7,14.14,1.76,11.63,13.95,8.18,13.95,8.18"/><path class="cls-8" d="M282.69,152.78a46.59,46.59,0,0,1,27.41-1.47,127.52,127.52,0,0,0,23.37,3.3"/><path class="cls-8" d="M272.89,158a29.07,29.07,0,0,1,4.3-2.74"/><path class="cls-8" d="M308.8,159.87c1.23.17,1.54.29,2.71.49A125.9,125.9,0,0,1,327,164.05s37.67,14.61,56.93-4.74"/><path class="cls-8" d="M269.26,168.24c.84-.56,8.93-8.37,24.28-9.21a65.53,65.53,0,0,1,7.92.09c1.1.07,2.19.17,3.28.29"/><line class="cls-8" x1="387.22" y1="155.59" x2="390.56" y2="152.24"/><path class="cls-3" d="M101.21,197.61h0l.19,0a2.08,2.08,0,0,1,.36-.06c3.07-.67,4.4-3.62,4.84-4.88a2.25,2.25,0,0,1,4.4-.36l0-.2s1,4.47,4.81,5.43a1.94,1.94,0,0,1,.48.09l.28,0,0,0a2.26,2.26,0,0,1-.16,4.23l.08,0c-3.5.4-5,3.7-5.4,5a2.26,2.26,0,0,1-4.48-.16c-.43-1.23-1.67-4-4.46-4.76H102a2.26,2.26,0,0,1-.76-4.4Z"/><path class="cls-8" d="M470.33,296.61a7.55,7.55,0,0,1-3.77-2.93"/></svg>