<svg width="250" height="250" viewBox="0 0 250 250" fill="none" xmlns="http://www.w3.org/2000/svg">
<g clip-path="url(#clip0_2110_3284)">
<path d="M121.717 104.208L121.6 105.331C120.704 114.329 116.72 122.741 110.323 129.139C103.926 135.536 95.5104 139.526 86.5042 140.431L85.4063 140.536L85.5108 139.426C86.4044 130.423 90.3894 122.007 96.7892 115.606C103.189 109.206 111.609 105.215 120.62 104.312L121.717 104.208ZM119.469 38.917H129.534L125.404 72.2676H123.6L119.469 38.917ZM128.384 104.208C137.394 105.111 145.814 109.101 152.214 115.502C158.614 121.902 162.599 130.319 163.492 139.321L163.597 140.431L162.499 140.327C153.49 139.425 145.072 135.436 138.673 129.038C132.273 122.64 128.287 114.227 127.39 105.226L127.286 104.103L128.384 104.208ZM156.421 165.137C155.828 165.225 155.23 165.268 154.63 165.268C152.668 165.18 150.724 164.856 148.84 164.302C145.482 163.353 142.015 162.848 138.527 162.8C135.576 162.82 132.635 163.157 129.756 163.805L127.874 164.275L128.763 162.526C131.707 156.797 135.939 151.827 141.128 148.005C146.016 144.636 150.8 143.67 155.349 145.106C161.113 146.921 163.688 150.982 163.688 154.247C163.688 158.791 161.78 164.38 156.421 165.242M163.688 186.396L127.181 208.033V170.165L127.848 169.969C137.743 167.2 143.18 168.545 147.546 169.629C149.856 170.294 152.24 170.671 154.643 170.752C155.519 170.755 156.393 170.685 157.258 170.543C159.057 170.261 160.774 169.593 162.29 168.585L163.688 167.671V186.396ZM125.26 157.825L124.475 159.131L123.691 157.825C122.887 156.476 122.014 155.168 121.077 153.907C117.857 149.342 113.76 145.463 109.026 142.494C108.047 141.927 107.034 141.421 105.993 140.98L104.346 140.248L105.875 139.308C113.771 134.431 119.97 127.24 123.626 118.715L124.462 116.744L125.299 118.715C128.945 127.238 135.135 134.429 143.023 139.308L144.552 140.248L142.906 140.954C141.856 141.395 140.834 141.901 139.847 142.468C135.144 145.428 131.075 149.289 127.874 153.829C126.935 155.089 126.063 156.396 125.26 157.746M85.2886 154.129C85.2886 150.917 87.9028 146.856 93.6149 144.989C98.1374 143.565 102.987 144.531 107.849 147.887C113.038 151.709 117.27 156.679 120.214 162.408L121.103 164.158L119.221 163.74C112.927 162.225 106.344 162.396 100.137 164.236C98.2485 164.79 96.3 165.114 94.3338 165.203C93.7388 165.203 93.1446 165.159 92.5561 165.072C87.197 164.21 85.2886 158.621 85.2886 154.077M121.783 207.864L85.3148 186.357V167.579L86.7134 168.493C88.2249 169.501 89.9374 170.169 91.7326 170.452C92.5969 170.593 93.4712 170.663 94.3468 170.661C96.7499 170.58 99.1338 170.203 101.444 169.538C105.797 168.454 111.221 167.109 121.142 169.877L121.796 170.073L121.783 207.864ZM79.9557 143.121V187.741C79.9515 188.203 80.0704 188.659 80.3 189.06C80.5297 189.462 80.8619 189.795 81.2628 190.026L123.09 214.837C123.509 215.08 123.985 215.208 124.469 215.208C124.953 215.208 125.429 215.08 125.848 214.837L167.675 190.026C168.076 189.795 168.408 189.462 168.638 189.06C168.868 188.659 168.986 188.203 168.982 187.741V143.252C168.914 132.168 164.732 121.503 157.247 113.321C149.763 105.139 139.506 100.022 128.462 98.9585L127.521 98.8801L135.22 36.6057C135.268 36.234 135.236 35.8561 135.126 35.4979C135.015 35.1396 134.829 34.8093 134.579 34.5294C134.331 34.2394 134.022 34.0073 133.674 33.8493C133.327 33.6914 132.948 33.6115 132.566 33.6154H116.437C116.055 33.6115 115.677 33.6914 115.329 33.8493C114.981 34.0073 114.672 34.2394 114.424 34.5294C114.174 34.8093 113.988 35.1396 113.877 35.4979C113.767 35.8561 113.735 36.234 113.783 36.6057L121.482 98.8801L120.541 98.9585C109.497 100.022 99.2407 105.139 91.7557 113.321C84.2708 121.503 80.0896 132.168 80.021 143.252" fill="#D8CFBC"/>
<path d="M208.6 208.53C186.286 230.813 156.024 243.327 124.474 243.32C92.9234 243.312 62.668 230.784 40.3637 208.491C18.0593 186.198 5.53296 155.967 5.54031 124.447C5.54766 92.9277 18.0881 62.702 40.4029 40.4195C62.7177 18.137 92.9789 5.62292 124.529 5.63027C156.08 5.63762 186.335 18.1658 208.64 40.4586C230.944 62.7515 243.47 92.9831 243.463 124.503C243.456 156.022 230.915 186.248 208.6 208.53ZM124.502 0.108901C99.8783 0.10624 75.8071 7.39874 55.3327 21.0641C34.8583 34.7294 18.9002 54.1537 9.4769 76.8803C0.0535822 99.6069 -2.41172 124.615 2.3928 148.741C7.19731 172.868 19.0558 195.029 36.4685 212.422C48.0283 223.971 61.752 233.133 76.8559 239.383C91.9599 245.634 108.148 248.852 124.497 248.852C140.846 248.853 157.034 245.637 172.139 239.387C187.243 233.137 200.968 223.977 212.528 212.428C224.089 200.88 233.259 187.17 239.516 172.08C245.773 156.991 248.994 140.819 248.995 124.486C248.995 108.153 245.776 91.9806 239.52 76.891C233.264 61.8014 224.095 48.0905 212.535 36.5412C201.003 24.953 187.284 15.766 172.173 9.51221C157.061 3.25846 140.858 0.0623054 124.502 0.108901Z" fill="#D8CFBC"/>
</g>
<defs>
<clipPath id="clip0_2110_3284">
<rect width="250" height="249.857" fill="white"/>
</clipPath>
</defs>
</svg>
